<mxfile host="app.diagrams.net" agent="Mozilla/5.0 (Windows NT 10.0; Win64; x64; rv:131.0) Gecko/20100101 Firefox/131.0" version="24.7.17">
  <diagram name="Page-1" id="Qc0qrriWraSWkmK0h85e">
    <mxGraphModel dx="641" dy="779" grid="1" gridSize="10" guides="1" tooltips="1" connect="1" arrows="1" fold="1" page="1" pageScale="1" pageWidth="1200" pageHeight="1920" math="0" shadow="0">
      <root>
        <mxCell id="0" />
        <mxCell id="1" parent="0" />
        <mxCell id="e-KAQJBwH0rgHQMcQUg_-2" value="Auto" style="rounded=0;whiteSpace=wrap;html=1;fillColor=#dae8fc;strokeColor=#6c8ebf;" vertex="1" parent="1">
          <mxGeometry x="190" y="310" width="120" height="60" as="geometry" />
        </mxCell>
        <mxCell id="e-KAQJBwH0rgHQMcQUg_-3" value="Tulajdonos" style="rounded=0;whiteSpace=wrap;html=1;fillColor=#dae8fc;strokeColor=#6c8ebf;" vertex="1" parent="1">
          <mxGeometry x="590" y="310" width="120" height="60" as="geometry" />
        </mxCell>
        <mxCell id="e-KAQJBwH0rgHQMcQUg_-4" value="" style="endArrow=none;html=1;rounded=0;" edge="1" parent="1">
          <mxGeometry width="50" height="50" relative="1" as="geometry">
            <mxPoint x="250" y="310" as="sourcePoint" />
            <mxPoint x="340" y="280" as="targetPoint" />
          </mxGeometry>
        </mxCell>
        <mxCell id="e-KAQJBwH0rgHQMcQUg_-5" value="" style="endArrow=none;html=1;rounded=0;" edge="1" parent="1">
          <mxGeometry width="50" height="50" relative="1" as="geometry">
            <mxPoint x="250" y="310" as="sourcePoint" />
            <mxPoint x="310" y="250" as="targetPoint" />
          </mxGeometry>
        </mxCell>
        <mxCell id="e-KAQJBwH0rgHQMcQUg_-6" value="" style="endArrow=none;html=1;rounded=0;exitX=0.5;exitY=0;exitDx=0;exitDy=0;" edge="1" parent="1" source="e-KAQJBwH0rgHQMcQUg_-2">
          <mxGeometry width="50" height="50" relative="1" as="geometry">
            <mxPoint x="240" y="310" as="sourcePoint" />
            <mxPoint x="250" y="240" as="targetPoint" />
          </mxGeometry>
        </mxCell>
        <mxCell id="e-KAQJBwH0rgHQMcQUg_-7" value="" style="endArrow=none;html=1;rounded=0;exitX=0.5;exitY=0;exitDx=0;exitDy=0;" edge="1" parent="1" source="e-KAQJBwH0rgHQMcQUg_-2">
          <mxGeometry width="50" height="50" relative="1" as="geometry">
            <mxPoint x="240" y="310" as="sourcePoint" />
            <mxPoint x="190" y="260" as="targetPoint" />
          </mxGeometry>
        </mxCell>
        <mxCell id="e-KAQJBwH0rgHQMcQUg_-8" value="" style="endArrow=none;html=1;rounded=0;exitX=0.5;exitY=0;exitDx=0;exitDy=0;" edge="1" parent="1" source="e-KAQJBwH0rgHQMcQUg_-2">
          <mxGeometry width="50" height="50" relative="1" as="geometry">
            <mxPoint x="190" y="300" as="sourcePoint" />
            <mxPoint x="170" y="290" as="targetPoint" />
          </mxGeometry>
        </mxCell>
        <mxCell id="e-KAQJBwH0rgHQMcQUg_-9" value="&lt;div&gt;&lt;u&gt;&lt;br&gt;&lt;/u&gt;&lt;/div&gt;&lt;div&gt;&lt;u&gt;Rendszám NN&lt;/u&gt;&lt;/div&gt;&lt;div&gt;PK&lt;/div&gt;" style="ellipse;whiteSpace=wrap;html=1;fillColor=#fff2cc;strokeColor=#d6b656;" vertex="1" parent="1">
          <mxGeometry x="207.5" y="410" width="85" height="60" as="geometry" />
        </mxCell>
        <mxCell id="e-KAQJBwH0rgHQMcQUg_-10" value="Típus NN" style="ellipse;whiteSpace=wrap;html=1;fillColor=#fff2cc;strokeColor=#d6b656;" vertex="1" parent="1">
          <mxGeometry x="330" y="240" width="80" height="50" as="geometry" />
        </mxCell>
        <mxCell id="e-KAQJBwH0rgHQMcQUg_-11" value="szín NN" style="ellipse;whiteSpace=wrap;html=1;fillColor=#fff2cc;strokeColor=#d6b656;" vertex="1" parent="1">
          <mxGeometry x="292.5" y="200" width="60" height="50" as="geometry" />
        </mxCell>
        <mxCell id="e-KAQJBwH0rgHQMcQUg_-12" value="kor NN" style="ellipse;whiteSpace=wrap;html=1;fillColor=#fff2cc;strokeColor=#d6b656;" vertex="1" parent="1">
          <mxGeometry x="150" y="220" width="67.5" height="50" as="geometry" />
        </mxCell>
        <mxCell id="e-KAQJBwH0rgHQMcQUg_-13" value="ár" style="ellipse;whiteSpace=wrap;html=1;fillColor=#fff2cc;strokeColor=#d6b656;" vertex="1" parent="1">
          <mxGeometry x="110" y="270" width="60" height="40" as="geometry" />
        </mxCell>
        <mxCell id="e-KAQJBwH0rgHQMcQUg_-14" value="" style="endArrow=none;html=1;rounded=0;exitX=0.5;exitY=0;exitDx=0;exitDy=0;" edge="1" parent="1" source="e-KAQJBwH0rgHQMcQUg_-9">
          <mxGeometry width="50" height="50" relative="1" as="geometry">
            <mxPoint x="249.5" y="440" as="sourcePoint" />
            <mxPoint x="249.5" y="370" as="targetPoint" />
          </mxGeometry>
        </mxCell>
        <mxCell id="e-KAQJBwH0rgHQMcQUg_-15" value="tulaj NN, FK" style="ellipse;whiteSpace=wrap;html=1;fillColor=#fff2cc;strokeColor=#d6b656;" vertex="1" parent="1">
          <mxGeometry x="208.75" y="180" width="82.5" height="60" as="geometry" />
        </mxCell>
        <mxCell id="e-KAQJBwH0rgHQMcQUg_-16" value="" style="endArrow=none;html=1;rounded=0;" edge="1" parent="1">
          <mxGeometry width="50" height="50" relative="1" as="geometry">
            <mxPoint x="649.5" y="420" as="sourcePoint" />
            <mxPoint x="649.5" y="370" as="targetPoint" />
          </mxGeometry>
        </mxCell>
        <mxCell id="e-KAQJBwH0rgHQMcQUg_-17" value="&lt;u&gt;Tkod PK&lt;/u&gt;" style="ellipse;whiteSpace=wrap;html=1;fillColor=#fff2cc;strokeColor=#d6b656;" vertex="1" parent="1">
          <mxGeometry x="610" y="420" width="80" height="50" as="geometry" />
        </mxCell>
        <mxCell id="e-KAQJBwH0rgHQMcQUg_-18" value="" style="endArrow=none;html=1;rounded=0;exitX=0.5;exitY=0;exitDx=0;exitDy=0;" edge="1" parent="1" source="e-KAQJBwH0rgHQMcQUg_-3">
          <mxGeometry width="50" height="50" relative="1" as="geometry">
            <mxPoint x="650" y="310" as="sourcePoint" />
            <mxPoint x="690" y="260" as="targetPoint" />
          </mxGeometry>
        </mxCell>
        <mxCell id="e-KAQJBwH0rgHQMcQUg_-19" value="" style="endArrow=none;html=1;rounded=0;exitX=0.5;exitY=0;exitDx=0;exitDy=0;" edge="1" parent="1">
          <mxGeometry width="50" height="50" relative="1" as="geometry">
            <mxPoint x="650" y="310" as="sourcePoint" />
            <mxPoint x="580" y="260" as="targetPoint" />
          </mxGeometry>
        </mxCell>
        <mxCell id="e-KAQJBwH0rgHQMcQUg_-20" value="név NN" style="ellipse;whiteSpace=wrap;html=1;fillColor=#fff2cc;strokeColor=#d6b656;" vertex="1" parent="1">
          <mxGeometry x="540" y="220" width="80" height="45" as="geometry" />
        </mxCell>
        <mxCell id="e-KAQJBwH0rgHQMcQUg_-21" value="város NN" style="ellipse;whiteSpace=wrap;html=1;fillColor=#fff2cc;strokeColor=#d6b656;" vertex="1" parent="1">
          <mxGeometry x="650" y="220" width="80" height="45" as="geometry" />
        </mxCell>
        <mxCell id="e-KAQJBwH0rgHQMcQUg_-22" value="" style="endArrow=none;html=1;rounded=0;exitX=1;exitY=0.5;exitDx=0;exitDy=0;endFill=0;startArrow=classic;startFill=1;entryX=0;entryY=0.5;entryDx=0;entryDy=0;" edge="1" parent="1" source="e-KAQJBwH0rgHQMcQUg_-2" target="e-KAQJBwH0rgHQMcQUg_-23">
          <mxGeometry width="50" height="50" relative="1" as="geometry">
            <mxPoint x="330" y="360" as="sourcePoint" />
            <mxPoint x="400" y="340" as="targetPoint" />
          </mxGeometry>
        </mxCell>
        <mxCell id="e-KAQJBwH0rgHQMcQUg_-25" value="" style="edgeStyle=orthogonalEdgeStyle;rounded=0;orthogonalLoop=1;jettySize=auto;html=1;" edge="1" parent="1" target="e-KAQJBwH0rgHQMcQUg_-3">
          <mxGeometry relative="1" as="geometry">
            <mxPoint x="490" y="340" as="sourcePoint" />
          </mxGeometry>
        </mxCell>
        <mxCell id="e-KAQJBwH0rgHQMcQUg_-26" value="" style="edgeStyle=orthogonalEdgeStyle;rounded=0;orthogonalLoop=1;jettySize=auto;html=1;" edge="1" parent="1" source="e-KAQJBwH0rgHQMcQUg_-23" target="e-KAQJBwH0rgHQMcQUg_-3">
          <mxGeometry relative="1" as="geometry" />
        </mxCell>
        <mxCell id="e-KAQJBwH0rgHQMcQUg_-23" value="A-T" style="rhombus;whiteSpace=wrap;html=1;fillColor=#f8cecc;strokeColor=#b85450;" vertex="1" parent="1">
          <mxGeometry x="410" y="300" width="80" height="80" as="geometry" />
        </mxCell>
        <mxCell id="e-KAQJBwH0rgHQMcQUg_-24" value="" style="endArrow=doubleBlock;html=1;rounded=0;entryX=0;entryY=0.5;entryDx=0;entryDy=0;exitX=1;exitY=0.5;exitDx=0;exitDy=0;endFill=1;" edge="1" parent="1" source="e-KAQJBwH0rgHQMcQUg_-23" target="e-KAQJBwH0rgHQMcQUg_-3">
          <mxGeometry width="50" height="50" relative="1" as="geometry">
            <mxPoint x="500" y="340" as="sourcePoint" />
            <mxPoint x="530" y="290" as="targetPoint" />
          </mxGeometry>
        </mxCell>
      </root>
    </mxGraphModel>
  </diagram>
</mxfile>
